<svg width="23" height="30" viewBox="0 0 23 30" fill="none" xmlns="http://www.w3.org/2000/svg">
<path d="M2.875 10H15.8125V7.14286C15.8125 5.95238 15.3932 4.94048 14.5547 4.10714C13.7161 3.27381 12.6979 2.85714 11.5 2.85714C10.3021 2.85714 9.28385 3.27381 8.44531 4.10714C7.60677 4.94048 7.1875 5.95238 7.1875 7.14286H4.3125C4.3125 5.16667 5.01352 3.48191 6.41556 2.08857C7.81761 0.695239 9.51242 -0.000951405 11.5 9.758e-07C13.4885 9.758e-07 15.1838 0.696668 16.5859 2.09C17.9879 3.48333 18.6885 5.16762 18.6875 7.14286V10H20.125C20.9156 10 21.5927 10.28 22.1562 10.84C22.7197 11.4 23.001 12.0724 23 12.8571V27.1429C23 27.9286 22.7182 28.6014 22.1547 29.1614C21.5912 29.7214 20.9147 30.0009 20.125 30H2.875C2.08438 30 1.40731 29.72 0.843815 29.16C0.280315 28.6 -0.000955892 27.9276 2.44058e-06 27.1429V12.8571C2.44058e-06 12.0714 0.281752 11.3986 0.845252 10.8386C1.40875 10.2786 2.08534 9.99905 2.875 10ZM2.875 27.1429H20.125V12.8571H2.875V27.1429ZM11.5 22.8571C12.2906 22.8571 12.9677 22.5771 13.5312 22.0171C14.0947 21.4571 14.376 20.7848 14.375 20C14.375 19.2143 14.0932 18.5414 13.5297 17.9814C12.9662 17.4214 12.2897 17.1419 11.5 17.1429C10.7094 17.1429 10.0323 17.4229 9.46881 17.9829C8.90531 18.5429 8.62404 19.2152 8.625 20C8.625 20.7857 8.90675 21.4586 9.47025 22.0186C10.0338 22.5786 10.7103 22.8581 11.5 22.8571Z" fill="#616163"/>
</svg>
